<?xml version="1.0" encoding="UTF-8"?>
<!DOCTYPE svg  PUBLIC '-//W3C//DTD SVG 1.1//EN'  'http://www.w3.org/Graphics/SVG/1.1/DTD/svg11.dtd'>
<svg width="210mm" height="184.05mm" clip-rule="evenodd" fill-rule="evenodd" image-rendering="optimizeQuality" shape-rendering="geometricPrecision" text-rendering="geometricPrecision" version="1.1" viewBox="0 0 21000 18405" xml:space="preserve" xmlns="http://www.w3.org/2000/svg">
 <defs>
  <style type="text/css">
   <![CDATA[
    .str0 {stroke:#FECC00;stroke-width:20}
    .fil4 {fill:none}
    .fil3 {fill:#FECC00}
    .fil2 {fill:black}
    .fil0 {fill:#1A1813}
    .fil1 {fill:#F5CA2F;fill-rule:nonzero}
   ]]>
  </style>
 </defs>
    <polygon class="fil0" points="186 17956 180 17941 175 17921 169 17899 165 17872 161 17843 159 17813 158 17782 158 17748 159 17714 163 17678 167 17643 175 17607 184 17573 196 17539 202 17522 209 17506 218 17490 226 17475 852 16387 1469 15312 2080 14249 2687 13193 3289 12146 3888 11104 4484 10066 5079 9029 5675 7993 6272 6955 6871 5913 7472 4865 8078 3810 8690 2746 9308 1671 9933 584 9979 521 10024 466 10066 416 10105 373 10143 333 10181 299 10198 285 10217 270 10234 257 10251 245 10268 235 10285 224 10302 215 10319 207 10336 200 10352 193 10369 186 10386 181 10419 172 10453 165 10488 160 10524 158 10554 159 10587 163 10621 169 10656 177 10693 189 10731 203 10751 211 10770 221 10790 230 10810 242 10829 252 10849 265 10869 278 10889 293 10908 308 10927 326 10946 343 10966 362 10984 382 11004 403 11022 425 11041 449 11058 474 11076 500 11093 526 11110 555 11739 1650 12357 2725 12966 3787 13569 4834 14166 5872 14758 6902 15346 7928 15934 8950 16522 9972 17111 10997 17703 12028 18299 13066 18901 14113 19512 15174 20130 16250 20759 17343 20772 17368 20783 17393 20794 17418 20804 17442 20812 17467 20820 17490 20825 17514 20831 17538 20835 17560 20839 17584 20841 17606 20843 17627 20843 17649 20843 17670 20841 17691 20840 17711 20836 17749 20828 17786 20820 17820 20810 17850 20799 17879 20787 17904 20776 17925 20765 17942 20749 17963 20732 17985 20713 18010 20689 18034 20664 18060 20635 18085 20605 18110 20571 18134 20552 18145 20534 18157 20516 18168 20495 18178 20475 18189 20454 18198 20432 18206 20409 18215 20386 18221 20362 18228 20337 18233 20312 18239 20286 18242 20260 18245 20232 18248 20203 18248 18938 18248 17689 18248 16454 18248 15229 18248 14015 18248 12806 18248 11604 18248 10403 18248 9201 18248 7998 18248 6790 18248 5576 18248 4351 18248 3116 18248 1866 18248 601 18248 576 18246 553 18245 530 18241 508 18237 487 18232 467 18227 448 18219 429 18211 412 18203 395 18194 379 18185 364 18174 349 18164 335 18152 322 18140 310 18128 286 18105 265 18081 247 18056 231 18032 205 17990"/>
    <path class="fil1" d="m42 18018l-10-25-10-33-8-36-6-42-4-45-3-49-1-23v-25l1-26 2-25 4-37 6-38 8-38 9-37 12-38 14-37 8-17 8-18 9-17 11-17 5-8 9701-16882 8-13 5-6 46-62 48-62 48-55 44-48 21-23 23-21 21-19 21-19 21-17 19-16 20-15 21-13 22-15 23-13 21-13 22-11 21-9 21-9 22-8 21-6 21-7 23-5 21-6 22-3 43-6 46-5h16l22 1 23 3 23 3 24 2 25 5 25 6 26 6 26 8 26 8 28 11 28 10 27 13 28 13 27 16 29 17 28 18 19 14 21 15 20 16 20 17 19 17 20 19 20 19 19 21 19 21 20 23 18 23 18 25 17 25 19 28 17 27 17 29 2 5 9645 16782v1l1-1 13 25 13 25 11 25 10 25 11 25 8 23 8 25 6 24 5 25 6 23 4 24 3 22 3 24 1 22 2 23 1 22-1 31-2 32-2 31-4 29-5 29-7 28-7 26-7 26-8 24-8 23-9 21-10 20-10 19-9 17-9 15-8 10 1 1-22 30-27 34-31 36-35 36-20 19-21 18-22 18-23 18-25 18-25 17-26 16-27 15-41 21-43 19-21 9-24 8-22 8-25 6-24 7-25 5-26 5-26 4-27 3-27 3-28 1-27 1-2-313 34-2 33-4 32-5 30-8 30-8 28-10 26-12 24-13 18-9 17-11 16-12 16-10 28-24 27-23 22-24 20-22 17-21 13-18 2-5 10-14 8-17 9-21 8-24 6-27 5-29 3-33 1-35-1-27-3-27-5-28-6-29-8-29-12-28-13-31-14-27-2-3-9648-16788v-1l-24-40-25-36-25-33-26-30-26-28-26-25-28-22-26-20-17-10-17-11-17-9-17-9-33-15-33-10-32-9-30-6-27-4-18-1-19 1-25 4-25 4-25 7-24 8-23 10-24 12-23 14-31 21-30 27-31 29-33 34-36 39-38 45-39 50-36 50-9700 16879-4 7-9 16-8 18-8 20-5 20-5 21-4 21-3 21-3 22-1 30v56l1 24 3 22 4 20 4 16 4 11 10 20 20 31 10 15 14 17 14 17 16 16 17 16 20 16 19 13 24 12 12 5 11 5 14 4 13 3 13 2 14 3 16 1 6 1 7-1h19602v158l2 157h-19606l-32-1-31-3-29-4-29-5-28-6-26-8-25-8-25-9-24-11-21-12-22-12-20-11-19-13-19-15-17-13-17-14-14-16-16-15-13-15-14-15-24-30-21-30-18-28-18-27-13-24-11-21-4-8 137-75-137 75-6-13h-1zm184-543l135 81-125-75-10-6z"/>
    <polygon class="fil1" points="10475 2531 9163 4800 8170 6515 7454 7757 6965 8601 6662 9132 6494 9425 6417 9563 6384 9625 6350 9689 6267 9835 6091 10144 5774 10696 5270 11567 4536 12840 3520 14594 2180 16908 18820 16908 17481 14596 16469 12849 15737 11588 15241 10731 14928 10196 14756 9903 14679 9770 14648 9719 14617 9668 14537 9535 14367 9243 14056 8707 13556 7850 12824 6587 11814 4842"/>
    <path class="fil2" d="m8664 10237c-114 216-144 424-176 669-9 67-10 124-23 188-17 79-40 168-74 243-91 204-140 242-22 476 18 35 31 62 49 97 39 77 97 151 155 214 49 52 126 148 184 186-205 306-271 504-271 912 0 111 31 212 69 307 12 32 23 61 36 89 28 56 56 112 87 165 8 14 98 152 98 152 0 119-224 383-224 654 0 155 73 259 159 375 56 75 158 151 165 160l-65 81c-22 30-41 60-61 90-14 21-142 243-46 251 1 36 8 37 39 39 58 3 5 51 157-34 39-22 71-41 107-65 93-65 181-127 267-202 56-49 113-21 185-32 55-8 114-1 170-3 33-1 40-7 78-7 230 0 266-31 392-36 180-7 723 149 877 149-16 68-166 297-53 329l20 7c25 14 0 15 39 20 13 1 18-1 31 2 24 6 8 11 22 11 56 0 185-92 229-121 68-45 135-100 192-158 30-30 56-55 86-85 27-27 59-73 89-89 42-22 73-36 112-60 105-66 195-167 256-273 44-76 80-146 121-228 67-133 163-410 130-564 45-4 392-139 475-166 27-9 50-9 60-32 9-21-24-69-31-88-30-74-98-212-114-282 64-34 508-205 508-224 0-57-148-492-172-595 30-2 48-14 76-24 28-9 45-15 73-26 29-11 433-146 433-161 0-57-39-134-55-190l-146-481c-5-17-9-28-15-45-6-18-9-36-15-50 17-8 77-23 102-29 246-61 489-145 727-224l504-170c86-29 221-72 291-118-9-106-204-502-271-634l-297-608c-19-38-78-143-86-178-42 0-77 20-112 40l-440 246-1465 946c-89 60-65 42 41 202l612 921c21 31 94 131 96 161-44 3-437 164-509 190-108 40-93-5 53 359 22 55 41 104 64 160 14 36 60 132 62 162-31 8-342 174-376 192 5 58 165 332 185 416-62 29-215 112-271 125l-40-231c-37-223-103-437-152-660l-51-219c-56-224-96-449-134-678-38-227-80-475-104-709l-26-244c-48-435-58-461-200-818-6-16-12-37-20-53 100 0 561-152 633-179l285-125c113-56 221-116 324-185 20-13 39-23 61-38 274-184 388-278 608-515 27-29 148-150 124-174-16-16-329 15-377 15-61-1-319 13-373 23-239 44-442 96-656 163-318 99-726 313-1012 513-94 66-22 62-268-35-72-28-141-50-219-72-430-120-925-97-1341 42l-175 63c-19 9-42 20-64 22-8-32-46-60-67-84-12-13-12-17-23-30-127-142-274-304-420-425-115-97-232-193-355-280l-386-247c-90-53-187-99-283-140-110-45-362-167-466-167-41 0-6 46 1 64l104 213c46 93 106 181 159 270 26 44 57 85 85 126l341 399c1 1 3 2 4 3 76 74 164 164 247 228l85 74c215 169 275 208 505 346 20 12 50 34 73 40z"/>
     <path class="fil3" d="m10603 10795c-72 17-120 58-147 112-122 253 118 456 312 398 223-67 235-362 54-474-54-34-146-53-219-36z"/>
     <path class="fil3" d="m8926 10768c-251 38-266 500 15 491 132-5 182-123 188-256 5-139-55-257-203-235z"/>
    <path class="fil4 str0" d="m9315 11622c32 30 61 66 97 92 9 7 24 4 34 0 57-19 110-49 166-68 19-7 40-16 58-10 85 28 160 79 244 110 14 5 30 0 44-5 48-19 94-44 141-66"/>
    <path class="fil3" d="m9615 11399c-49-15-71-39-85-66l174-6c-29 24-59 48-89 72z"/>
</svg>
