<?xml version="1.0" encoding="iso-8859-1"?>
<!-- Generator: Adobe Illustrator 19.0.0, SVG Export Plug-In . SVG Version: 6.00 Build 0)  -->
<svg version="1.1" id="Capa_1" xmlns="http://www.w3.org/2000/svg" xmlns:xlink="http://www.w3.org/1999/xlink" x="0px" y="0px"
	 viewBox="0 0 480 480" style="enable-background:new 0 0 480 480;" xml:space="preserve">
<g>
	<g>
		<path d="M240,320c-26.51,0-48,21.49-48,48c0,26.51,21.49,48,48,48c26.499-0.026,47.974-21.501,48-48
			C288,341.49,266.51,320,240,320z M240,400c-17.673,0-32-14.327-32-32c0-17.673,14.327-32,32-32c17.673,0,32,14.327,32,32
			C272,385.673,257.673,400,240,400z"/>
	</g>
</g>
<g>
	<g>
		<path d="M272,64h-64c-4.418,0-8,3.582-8,8v224c0,4.418,3.582,8,8,8h64c4.418,0,8-3.582,8-8V72C280,67.582,276.418,64,272,64z
			 M264,288h-48V80h48V288z"/>
	</g>
</g>
<g>
	<g>
		<rect x="232" width="16" height="48"/>
	</g>
</g>
<g>
	<g>
		<rect x="176.103" y="7.326" transform="matrix(0.9659 -0.259 0.259 0.9659 -1.8327 48.7458)" width="16.002" height="48.006"/>
	</g>
</g>
<g>
	<g>
		<rect x="124.001" y="28.939" transform="matrix(0.8661 -0.4999 0.4999 0.8661 -8.7867 73.08)" width="16" height="48"/>
	</g>
</g>
<g>
	<g>
		<rect x="79.261" y="63.263" transform="matrix(0.7071 -0.7071 0.7071 0.7071 -36.1463 87.2553)" width="16" height="48"/>
	</g>
</g>
<g>
	<g>
		<rect x="44.939" y="107.994" transform="matrix(0.5 -0.866 0.866 0.5 -87.8405 111.8461)" width="16" height="48"/>
	</g>
</g>
<g>
	<g>
		<rect x="23.34" y="160.056" transform="matrix(0.2589 -0.9659 0.9659 0.2589 -154.5506 166.6754)" width="16" height="47.992"/>
	</g>
</g>
<g>
	<g>
		<rect y="232" width="48" height="16"/>
	</g>
</g>
<g>
	<g>
		<rect x="7.361" y="287.909" transform="matrix(0.9659 -0.2588 0.2588 0.9659 -75.5185 18.1989)" width="47.992" height="16"/>
	</g>
</g>
<g>
	<g>
		<rect x="28.945" y="339.999" transform="matrix(0.8661 -0.4999 0.4999 0.8661 -166.8808 73.0754)" width="48" height="16"/>
	</g>
</g>
<g>
	<g>
		<rect x="63.229" y="384.711" transform="matrix(0.7071 -0.7071 0.7071 0.7071 -252.1398 176.7026)" width="48" height="16"/>
	</g>
</g>
<g>
	<g>
		<rect x="107.98" y="419.05" transform="matrix(0.4999 -0.8661 0.8661 0.4999 -303.8555 327.8629)" width="48" height="16"/>
	</g>
</g>
<g>
	<g>
		
			<rect x="160.164" y="440.744" transform="matrix(0.259 -0.9659 0.9659 0.259 -296.9625 510.4175)" width="48.006" height="16.002"/>
	</g>
</g>
<g>
	<g>
		<rect x="232" y="432" width="16" height="48"/>
	</g>
</g>
<g>
	<g>
		
			<rect x="288.016" y="424.616" transform="matrix(0.9659 -0.259 0.259 0.9659 -106.0807 91.9644)" width="16.002" height="48.006"/>
	</g>
</g>
<g>
	<g>
		<rect x="339.986" y="403.053" transform="matrix(0.866 -0.5 0.5 0.866 -166.9008 231.1955)" width="16" height="48"/>
	</g>
</g>
<g>
	<g>
		<rect x="384.736" y="368.749" transform="matrix(0.7071 -0.7071 0.7071 0.7071 -162.6855 392.7126)" width="16" height="48"/>
	</g>
</g>
<g>
	<g>
		<rect x="419.042" y="323.987" transform="matrix(0.5 -0.866 0.866 0.5 -87.8405 543.8328)" width="16" height="48"/>
	</g>
</g>
<g>
	<g>
		<rect x="440.638" y="271.903" transform="matrix(0.2589 -0.9659 0.9659 0.2589 46.6796 652.6373)" width="16" height="47.992"/>
	</g>
</g>
<g>
	<g>
		<rect x="432" y="232" width="48" height="16"/>
	</g>
</g>
<g>
	<g>
		<rect x="424.639" y="176.082" transform="matrix(0.9659 -0.2589 0.2589 0.9659 -32.3615 122.423)" width="47.992" height="16"/>
	</g>
</g>
<g>
	<g>
		<rect x="403.044" y="123.974" transform="matrix(0.8661 -0.4999 0.4999 0.8661 -8.7828 231.1636)" width="48" height="16"/>
	</g>
</g>
<g>
	<g>
		<rect x="368.728" y="79.281" transform="matrix(0.7071 -0.7071 0.7071 0.7071 53.3213 303.2812)" width="48" height="16"/>
	</g>
</g>
<g>
	<g>
		<rect x="323.998" y="44.936" transform="matrix(0.5 -0.866 0.866 0.5 128.16 327.8465)" width="48" height="16"/>
	</g>
</g>
<g>
	<g>
		<rect x="271.97" y="23.366" transform="matrix(0.259 -0.9659 0.9659 0.259 189.028 309.1198)" width="48.006" height="16.002"/>
	</g>
</g>
<g>
</g>
<g>
</g>
<g>
</g>
<g>
</g>
<g>
</g>
<g>
</g>
<g>
</g>
<g>
</g>
<g>
</g>
<g>
</g>
<g>
</g>
<g>
</g>
<g>
</g>
<g>
</g>
<g>
</g>
</svg>
