<?xml version="1.0" standalone="no"?>
<!DOCTYPE svg PUBLIC "-//W3C//DTD SVG 20010904//EN"
 "http://www.w3.org/TR/2001/REC-SVG-20010904/DTD/svg10.dtd">
<svg version="1.0" xmlns="http://www.w3.org/2000/svg"
 width="512.000000pt" height="512.000000pt" viewBox="0 0 512.000000 512.000000"
 preserveAspectRatio="xMidYMid meet">

<g transform="translate(0.000000,512.000000) scale(0.100000,-0.100000)"
fill="#000000" stroke="none">
<path d="M2370 5114 c-19 -2 -78 -9 -130 -15 -791 -90 -1522 -586 -1924 -1305
-146 -262 -252 -588 -297 -914 -18 -125 -18 -515 0 -640 105 -759 507 -1401
1138 -1820 123 -82 381 -212 524 -264 622 -228 1330 -201 1935 72 183 83 441
240 464 281 20 39 12 91 -19 122 -48 47 -75 41 -220 -52 -617 -396 -1355 -487
-2044 -253 -568 193 -1063 622 -1336 1157 -470 924 -287 2048 450 2763 341
330 744 541 1204 629 599 115 1233 -9 1736 -340 583 -385 963 -993 1054 -1688
17 -136 20 -394 4 -535 -39 -359 -167 -721 -368 -1033 -93 -145 -99 -172 -52
-220 32 -31 84 -39 123 -18 56 30 274 426 354 644 50 136 108 373 130 530 26
179 26 510 0 690 -21 155 -80 393 -131 531 -20 54 -71 171 -115 259 -127 259
-266 454 -473 664 -399 404 -891 653 -1459 737 -98 14 -474 27 -548 18z"/>
<path d="M2800 3245 l-575 -575 -240 240 c-233 232 -242 240 -280 240 -39 0
-48 -8 -352 -313 -306 -305 -313 -313 -313 -352 0 -39 8 -48 573 -612 565
-566 573 -573 612 -573 40 0 48 8 947 908 900 899 908 907 908 947 0 39 -7 47
-313 352 -305 305 -313 313 -352 313 -39 0 -48 -9 -615 -575z m233 -897 l-808
-808 -472 472 -473 473 212 212 213 213 240 -240 c233 -232 242 -240 280 -240
39 0 50 10 615 575 l575 575 213 -213 212 -212 -807 -807z"/>
<path d="M4251 906 c-90 -50 -50 -186 55 -186 35 0 94 59 94 94 0 80 -80 130
-149 92z"/>
</g>
</svg>
