<svg height="512pt" viewBox="0 -94 512 512" width="512pt" xmlns="http://www.w3.org/2000/svg"><path d="m256 7.53125c-137.164062 0-248.46875 111.203125-248.46875 248.46875v30.117188c0 16.632812 13.480469 30.117187 30.117188 30.117187h436.703124c16.636719 0 30.117188-13.484375 30.117188-30.117187v-30.117188c0-137.257812-111.296875-248.46875-248.46875-248.46875zm0 0" fill="#8b9ba9"/><path d="m37.648438 316.234375h436.703124c16.636719 0 30.117188-13.484375 30.117188-30.117187v-30.117188c0-91.972656-49.976562-172.246094-124.21875-215.207031l-.152344.265625c-8.085937 14.003906-4.359375 31.71875 8.472656 41.554687 52.117188 39.941407 85.78125 102.804688 85.78125 173.386719v7.53125c0 12.472656-10.113281 22.585938-22.585937 22.585938h-444.234375c0 16.632812 13.484375 30.117187 30.117188 30.117187zm0 0" fill="#6c7a88"/><path d="m353.859375 86.5-97.859375 169.5h195.765625c0-72.320312-39.425781-135.601562-97.90625-169.5zm0 0" fill="#ff5368"/><path d="m372.75 98.960938c-8.34375 14.453124-6.355469 32.691406 4.996094 44.921874.265625.285157.527344.570313.785156.855469 13.394531 14.785157 24.027344 31.855469 31.386719 50.316407 5.886719 14.78125-5.125 30.828124-21.035157 30.828124-23.0625 0-91.433593 0-115.492187 0l-17.390625 30.117188h195.765625c0-64.226562-31.09375-121.320312-79.015625-157.039062zm0 0" fill="#e93d52"/><path d="m158.140625 86.5 97.859375 169.5 97.859375-169.5c-28.804687-16.695312-62.234375-26.265625-97.859375-26.265625s-69.054688 9.570313-97.859375 26.265625zm0 0" fill="#ffcf5d"/><path d="m238.613281 225.882812 17.386719 30.117188 97.859375-169.5c-8.675781-5.027344-17.78125-9.398438-27.230469-13.066406zm0 0" fill="#ff983b"/><path d="m158.140625 86.5c-58.480469 33.898438-97.90625 97.179688-97.90625 169.5h195.765625zm0 0" fill="#a4d541"/><path d="m158.140625 86.5c-8.75 5.074219-17.066406 10.804688-24.894531 17.121094l51.027344 88.378906c8.691406 15.058594-2.175782 33.882812-19.5625 33.882812h-102.160157c-1.523437 9.820313-2.316406 19.878907-2.316406 30.117188h195.765625zm0 0" fill="#81b524"/><path d="m257.011719 225.898438c-5.867188-.191407-11.363281 1.300781-16.066407 4.023437l-107.828124-62.257813c-7.203126-4.15625-16.414063-1.691406-20.570313 5.511719-4.160156 7.203125-1.691406 16.414063 5.511719 20.570313l107.824218 62.253906c0 16.632812 13.484376 30.117188 30.117188 30.117188 17.261719 0 31.128906-14.519532 30.058594-32.011719-.9375-15.355469-13.671875-27.699219-29.046875-28.207031zm0 0" fill="#35404a"/><path d="m256 0c-141.449219 0-256 114.480469-256 256v30.117188c0 20.757812 16.886719 37.648437 37.648438 37.648437h436.703124c20.761719 0 37.648438-16.890625 37.648438-37.648437v-30.117188c0-141.457031-114.484375-256-256-256zm240.941406 286.117188c0 12.457031-10.132812 22.589843-22.589844 22.589843h-436.703124c-12.457032 0-22.589844-10.132812-22.589844-22.589843v-30.117188c0-132.855469 108.085937-240.941406 240.941406-240.941406s240.941406 108.085937 240.941406 240.941406zm0 0"/><path d="m256.019531 52.707031h-.039062c-34.585938 0-69.617188 8.734375-101.617188 27.277344-3.539062 2.058594-4.859375 6.613281-2.742187 10.296875.023437.042969.054687.078125.078125.117188l68.679687 118.953124-83.496094-48.207031c-5.226562-3.015625-11.316406-3.820312-17.140624-2.257812-5.828126 1.5625-10.699219 5.300781-13.714844 10.523437-6.226563 10.785156-2.519532 24.628906 8.265625 30.855469l83.492187 48.203125h-129.871094c2.136719-54.160156 27.710938-104.839844 70.152344-139.070312 3.234375-2.601563 3.738282-7.351563 1.136719-10.582032-2.628906-3.273437-7.386719-3.734375-10.589844-1.136718-47.871093 38.546874-75.90625 96.464843-75.90625 158.320312 0 1.988281.800781 3.925781 2.207031 5.320312 1.394532 1.40625 3.332032 2.210938 5.320313 2.210938h158.875c3.5 17.160156 18.710937 30.117188 36.890625 30.117188s33.390625-12.957032 36.890625-30.117188h158.875c4.160156 0 7.527344-3.371094 7.527344-7.53125 0-111.480469-90.6875-203.292969-203.273438-203.292969zm-35.722656 191.375-98.472656-56.855469c-1.742188-1.007812-2.988281-2.628906-3.511719-4.574218-.519531-1.941406-.253906-3.96875.753906-5.710938 1.003906-1.742187 2.628906-2.988281 4.570313-3.507812 1.945312-.519532 3.972656-.253906 5.714843.75l98.492188 56.867187c-3.332031 3.75-5.917969 8.171875-7.546875 13.03125zm35.703125 34.507813c-12.453125 0-22.589844-10.136719-22.589844-22.589844s10.136719-22.589844 22.589844-22.589844 22.589844 10.136719 22.589844 22.589844-10.136719 22.589844-22.589844 22.589844zm188.082031-30.121094h-151.191406c-3.558594-17.457031-19.027344-30.117188-36.890625-30.117188-4.164062 0-8.167969.691407-11.914062 1.945313l-75.585938-130.917969c26.804688-14.144531 57.050781-21.613281 87.5-21.613281s60.695312 7.46875 87.5 21.613281l-63.90625 110.691406c-2.074219 3.585938-.871094 8.195313 2.757812 10.28125 3.679688 2.125 8.253907.761719 10.292969-2.75l63.875-110.660156c52.160157 33.097656 85.070313 90.027344 87.5625 151.527344zm0 0"/></svg>