<svg id="Capa_1" enable-background="new 0 0 512 512" height="512" viewBox="0 0 512 512" width="512" xmlns="http://www.w3.org/2000/svg"><g><g fill="#fff398"><circle cx="256" cy="256" r="125.178"/><g><g><path d="m256 94.273c-9.265 0-16.776-7.511-16.776-16.776v-50.721c0-9.265 7.511-16.776 16.776-16.776 9.265 0 16.776 7.511 16.776 16.776v50.721c0 9.265-7.511 16.776-16.776 16.776z"/><path d="m256 502c-9.265 0-16.776-7.511-16.776-16.776v-50.721c0-9.265 7.511-16.776 16.776-16.776 9.265 0 16.776 7.511 16.776 16.776v50.721c0 9.265-7.511 16.776-16.776 16.776z"/></g><g><path d="m370.358 141.642c-6.551-6.551-6.551-17.173 0-23.725l35.865-35.865c6.551-6.551 17.173-6.551 23.725 0 6.551 6.551 6.551 17.173 0 23.725l-35.865 35.865c-6.551 6.551-17.173 6.551-23.725 0z"/><path d="m82.052 429.948c-6.551-6.551-6.551-17.173 0-23.725l35.865-35.865c6.551-6.551 17.173-6.551 23.725 0 6.551 6.551 6.551 17.173 0 23.725l-35.865 35.865c-6.552 6.552-17.174 6.552-23.725 0z"/></g><g><path d="m417.727 256c0-9.265 7.511-16.776 16.776-16.776h50.721c9.265 0 16.776 7.511 16.776 16.776 0 9.265-7.511 16.776-16.776 16.776h-50.721c-9.265 0-16.776-7.511-16.776-16.776z"/><path d="m10 256c0-9.265 7.511-16.776 16.776-16.776h50.721c9.265 0 16.776 7.511 16.776 16.776 0 9.265-7.511 16.776-16.776 16.776h-50.721c-9.265 0-16.776-7.511-16.776-16.776z"/></g><g><path d="m370.358 370.358c6.551-6.551 17.173-6.551 23.725 0l35.865 35.865c6.551 6.551 6.551 17.173 0 23.725-6.551 6.551-17.173 6.551-23.725 0l-35.865-35.865c-6.551-6.551-6.551-17.173 0-23.725z"/><path d="m82.052 82.052c6.551-6.551 17.173-6.551 23.725 0l35.865 35.865c6.551 6.551 6.551 17.173 0 23.725-6.551 6.551-17.173 6.551-23.725 0l-35.865-35.865c-6.552-6.552-6.552-17.174 0-23.725z"/></g></g></g><g><g><path d="m343.32 240.086c-4.314 0-8.296-2.814-9.584-7.162-7.062-23.828-25.123-43.449-48.314-52.487-5.146-2.005-7.692-7.803-5.687-12.948 2.005-5.146 7.8-7.691 12.948-5.687 28.908 11.265 51.424 35.729 60.229 65.44 1.569 5.295-1.451 10.859-6.747 12.429-.947.281-1.904.415-2.845.415z"/></g><g><path d="m256 391.179c-74.538 0-135.179-60.641-135.179-135.179s60.641-135.179 135.179-135.179 135.179 60.641 135.179 135.179-60.641 135.179-135.179 135.179zm0-250.358c-63.51 0-115.179 51.669-115.179 115.179s51.669 115.179 115.179 115.179 115.179-51.669 115.179-115.179-51.669-115.179-115.179-115.179z"/></g><g><g><g><path d="m256 104.272c-14.764 0-26.775-12.012-26.775-26.775v-50.722c0-14.763 12.011-26.775 26.775-26.775s26.775 12.012 26.775 26.775v50.722c0 14.764-12.011 26.775-26.775 26.775zm0-84.272c-3.736 0-6.775 3.039-6.775 6.775v50.722c0 3.736 3.039 6.775 6.775 6.775s6.775-3.039 6.775-6.775v-50.722c0-3.736-3.039-6.775-6.775-6.775z"/></g><g><path d="m256 512c-14.764 0-26.775-12.012-26.775-26.775v-50.722c0-14.764 12.012-26.775 26.775-26.775s26.775 12.012 26.775 26.775v50.722c0 14.763-12.011 26.775-26.775 26.775zm0-84.272c-3.736 0-6.775 3.039-6.775 6.775v50.722c0 3.736 3.039 6.775 6.775 6.775s6.775-3.039 6.775-6.775v-50.722c0-3.736-3.039-6.775-6.775-6.775z"/></g></g><g><g><path d="m382.221 156.543c-6.856 0-13.714-2.61-18.934-7.83-10.439-10.44-10.439-27.427 0-37.867l35.865-35.865c10.439-10.439 27.428-10.439 37.867 0 10.439 10.44 10.439 27.427 0 37.867l-35.865 35.865c-5.219 5.22-12.077 7.83-18.933 7.83zm35.865-69.401c-1.735 0-3.471.66-4.791 1.981l-35.865 35.865c-2.643 2.642-2.643 6.94 0 9.582 2.641 2.643 6.941 2.643 9.582 0l35.865-35.865c2.643-2.642 2.643-6.94 0-9.582-1.32-1.321-3.056-1.981-4.791-1.981z"/></g><g><path d="m93.914 444.85c-6.856 0-13.714-2.61-18.934-7.83-10.439-10.44-10.439-27.427 0-37.867l35.865-35.865c10.439-10.439 27.428-10.439 37.867 0 10.439 10.44 10.439 27.427 0 37.867l-35.865 35.865c-5.219 5.219-12.076 7.83-18.933 7.83zm35.865-69.402c-1.735 0-3.471.66-4.791 1.981l-35.865 35.865c-2.643 2.642-2.643 6.94 0 9.582 2.641 2.643 6.941 2.643 9.582 0l35.865-35.865c2.643-2.642 2.643-6.94 0-9.582-1.32-1.321-3.055-1.981-4.791-1.981z"/></g></g><g><g><path d="m485.225 282.775h-50.722c-14.764 0-26.775-12.012-26.775-26.775s12.012-26.775 26.775-26.775h50.722c14.763 0 26.775 12.011 26.775 26.775s-12.012 26.775-26.775 26.775zm-50.722-33.55c-3.736 0-6.775 3.039-6.775 6.775s3.039 6.775 6.775 6.775h50.722c3.736 0 6.775-3.039 6.775-6.775s-3.039-6.775-6.775-6.775z"/></g><g><path d="m77.497 282.775h-50.722c-14.763 0-26.775-12.011-26.775-26.775s12.012-26.775 26.775-26.775h50.722c14.764 0 26.775 12.012 26.775 26.775s-12.011 26.775-26.775 26.775zm-50.722-33.55c-3.736 0-6.775 3.039-6.775 6.775s3.039 6.775 6.775 6.775h50.722c3.736 0 6.775-3.039 6.775-6.775s-3.039-6.775-6.775-6.775z"/></g></g><g><g><path d="m418.086 444.85c-6.856 0-13.714-2.61-18.934-7.83l-35.865-35.865c-10.439-10.44-10.439-27.427 0-37.867 10.439-10.439 27.428-10.439 37.867 0l35.865 35.865c10.439 10.44 10.439 27.427 0 37.867-5.219 5.219-12.077 7.83-18.933 7.83zm-35.865-69.402c-1.735 0-3.471.66-4.791 1.981-2.643 2.642-2.643 6.94 0 9.582l35.865 35.865c2.641 2.643 6.941 2.643 9.582 0 2.643-2.642 2.643-6.94 0-9.582l-35.865-35.865c-1.321-1.321-3.056-1.981-4.791-1.981z"/></g><g><path d="m129.779 156.543c-6.856 0-13.714-2.61-18.934-7.83l-35.865-35.865c-10.439-10.44-10.439-27.427 0-37.867 10.439-10.439 27.428-10.439 37.867 0l35.865 35.865c10.439 10.44 10.439 27.427 0 37.867-5.219 5.22-12.076 7.83-18.933 7.83zm-35.865-69.401c-1.735 0-3.471.66-4.791 1.981-2.643 2.642-2.643 6.94 0 9.582l35.865 35.865c2.641 2.643 6.941 2.643 9.582 0 2.643-2.642 2.643-6.94 0-9.582l-35.865-35.865c-1.32-1.321-3.056-1.981-4.791-1.981z"/></g></g></g><g><path d="m256.025 172.25h-.025c-5.522 0-10-4.478-10-10s4.478-10 10-10 10.013 4.478 10.013 10-4.465 10-9.988 10z"/></g></g></g></svg>